<svg width="512" height="512" viewBox="0 0 512 512" fill="none" xmlns="http://www.w3.org/2000/svg">
<g clip-path="url(#clip0_16_20)">
<path d="M274 10.0001C288.903 21.5544 297.326 35.3068 300 54.0001C300.044 56.333 300.056 58.6674 300 61.0001C308.083 61.3823 308.083 61.3823 316 60.0001C318.29 57.6703 319.265 55.562 320.574 52.586C323.476 47.3234 329.475 44.8418 335 43.0001C344.498 42.1302 351.668 43.555 359.313 49.3126C364.926 54.9263 367.106 60.7684 367.375 68.6251C367.284 76.0977 365.064 81.3994 360.238 87.0704C354.764 92.3784 348.816 94.8456 341.199 95.0899C332.726 94.6329 326.856 92.2906 321.063 86.0626C318.189 82.7697 317.927 81.6327 317 77.0001C311.39 77.0001 305.78 77.0001 300 77.0001C300 92.8401 300 108.68 300 125C308.071 125.016 316.136 125.026 324.206 124.972C327.964 124.948 331.722 124.937 335.48 124.955C339.105 124.973 342.729 124.956 346.354 124.916C347.731 124.907 349.109 124.91 350.487 124.925C359.755 125.091 359.755 125.091 367.599 120.735C368.759 119.514 369.895 118.271 371 117C371.881 116.188 372.761 115.377 373.668 114.541C376.149 112.168 378.608 109.775 381.063 107.375C381.941 106.542 382.82 105.71 383.725 104.852C384.961 103.637 384.961 103.637 386.223 102.399C386.973 101.673 387.723 100.948 388.496 100.201C390.274 98.0919 390.274 98.0919 389.806 95.4556C389.407 94.2401 389.407 94.2401 389 93.0001C386.65 85.2984 386.28 78.3559 389.563 70.8126C392.755 65.098 397.679 61.4109 403.188 58.0626C410.728 55.9611 418.227 55.7625 425.438 59.0626C431.315 62.4496 436.091 67.3406 438.527 73.7891C440.14 81.3322 440.289 89.6649 436.199 96.3946C431.581 102.577 425.858 106.969 418.295 108.822C416 109 416 109 413.466 108.35C409.941 107.482 407.593 107.335 404 108C398.233 111.601 393.772 117.192 389.25 122.188C387.355 124.232 385.45 126.266 383.533 128.29C382.348 129.547 381.176 130.816 380.02 132.1C375.203 137.293 370.925 140.605 363.71 141.331C359.654 141.464 355.62 141.451 351.563 141.391C350.072 141.383 348.581 141.378 347.09 141.374C343.191 141.358 339.292 141.319 335.392 141.275C330.701 141.226 326.009 141.208 321.317 141.185C314.211 141.146 307.106 141.07 300 141C300 151.23 300 161.46 300 172C302.588 171.974 305.177 171.948 307.844 171.921C316.417 171.838 324.99 171.783 333.564 171.741C338.76 171.715 343.955 171.68 349.151 171.623C354.169 171.568 359.187 171.539 364.206 171.526C366.116 171.516 368.027 171.499 369.936 171.471C389.164 171.21 389.164 171.21 396 177C396.781 177.621 397.562 178.242 398.367 178.881C398.936 179.458 399.504 180.035 400.09 180.629C400.729 181.272 401.367 181.914 402.025 182.576C402.656 183.232 403.287 183.887 403.938 184.563C404.925 185.552 404.925 185.552 405.932 186.561C411.522 192.254 411.522 192.254 413 196C412.824 199.352 412.563 201.974 410.938 204.938C407.685 206.721 404.537 206.798 401 206C397.974 203.925 395.632 201.345 393.188 198.625C391.891 197.241 390.593 195.858 389.293 194.477C388.731 193.859 388.169 193.241 387.591 192.604C384.292 189.277 381.931 188.76 377.359 188.688C376.594 188.686 375.829 188.683 375.04 188.681C374.23 188.671 373.42 188.661 372.586 188.651C369.908 188.62 367.229 188.603 364.551 188.586C362.694 188.567 360.838 188.548 358.981 188.527C354.094 188.476 349.206 188.436 344.318 188.399C338.455 188.352 332.591 188.291 326.727 188.231C317.818 188.143 308.909 188.073 300 188C300 201.86 300 215.72 300 230C305.94 230 311.88 230 318 230C318.33 228.35 318.66 226.7 319 225C323.46 218.095 328.971 213.793 337 212C346.224 210.762 352.621 213.137 360.25 218.125C365.969 224.104 368.305 229.83 368.563 238.125C368.268 245.662 366.491 250.116 361.625 255.75C355.089 261.353 348.924 264.549 340.102 264.242C332.119 263.322 326.362 259.941 321 254C318 249.031 318 249.031 318 246C312.06 246 306.12 246 300 246C300 263.49 300 280.98 300 299C313.564 299.055 313.564 299.055 327.127 299.035C332.66 299.011 338.192 298.995 343.725 299.031C348.186 299.059 352.646 299.049 357.108 299.011C358.809 299.004 360.51 299.01 362.211 299.031C371.22 299.543 371.22 299.543 379.116 296.224C380.401 294.172 381.209 292.278 382 290C387 284.513 392.322 281.785 399.766 281.043C407.945 280.886 415.001 283.402 421 289C426.305 295.966 428.586 302.208 428 311C426.191 319.035 422.892 325.369 415.875 329.875C409.217 333.787 402.57 333.704 395 333C388.235 330.991 382.643 327.116 379 321C378.34 319.02 377.68 317.04 377 315C351.59 315 326.18 315 300 315C300 331.5 300 348 300 365C321.12 364.67 342.24 364.34 364 364C365.32 361.36 366.64 358.72 368 356C372.64 350.377 378.716 347.416 385.895 346.719C394.289 346.465 401.19 347.647 407.617 353.406C413.175 359.812 415.376 366.748 415.277 375.086C414.552 382.713 410.426 388.787 405 394C399.539 398.28 392.729 399.314 385.938 398.875C377.657 397.734 372.767 394.337 367.445 388C366 386 366 386 364 382C332.32 381.505 332.32 381.505 300 381C300 393.87 300 406.74 300 420C303.083 419.954 306.167 419.907 309.344 419.859C312.349 419.828 315.354 419.804 318.359 419.78C320.439 419.76 322.518 419.733 324.598 419.698C327.597 419.649 330.595 419.627 333.594 419.609C334.515 419.589 335.436 419.568 336.385 419.547C343.857 419.544 348.898 421.331 354.573 426.214C355.295 426.996 356.018 427.777 356.762 428.582C357.571 429.431 358.38 430.28 359.213 431.154C360.878 432.943 362.539 434.735 364.197 436.529C365.002 437.372 365.807 438.214 366.637 439.082C367.356 439.858 368.075 440.634 368.815 441.433C370.907 443.295 370.907 443.295 373.598 442.76C374.391 442.509 375.183 442.258 376 442C385.346 441.204 392.394 442.232 399.75 448.25C406.258 456.205 408.925 462.634 408 473C406.234 481.136 401.904 486.463 395 491C387.494 494.705 379.71 494.763 371.773 492.313C364.99 489.379 360.77 483.969 357.063 477.75C355.398 471.874 354.703 465.138 357.082 459.383C358.16 456.584 357.922 455.786 357 453C353.551 445.941 348.19 440.194 341 437C327.803 434.154 313.396 435.381 300 436C300.016 436.593 300.031 437.186 300.048 437.797C300.518 458.292 299.068 476.637 284.563 492.5C273.145 504.414 259.031 512.055 242.286 512.431C223.524 512.473 208.978 508.062 195.188 494.688C191.63 491.091 189.439 488.054 187.438 483.438C186.034 480.839 185.075 479.331 182.191 478.443C178.331 477.776 174.461 477.561 170.555 477.34C164.619 476.995 159.46 475.293 154 473C153.153 472.652 152.306 472.304 151.434 471.945C136.338 465.095 125.786 452.531 119.215 437.531C117.37 432.168 116.407 426.735 115.543 421.141C115.336 418.143 115.336 418.143 114 417C110.501 417.009 107.012 417.134 103.516 417.258C99.7508 416.982 97.9673 416.275 95.0001 414C93.5558 411.111 93.6232 409.204 94.0001 406C96.0188 403.273 97.6577 401.346 101.031 400.477C103.419 400.2 105.786 400.049 108.188 399.938C119.741 399.041 127.377 395.671 137.141 389.391C140.41 387.801 142.409 387.578 146 388C148.938 390.063 148.938 390.063 151 393C151.149 397.173 150.581 399.232 148.063 402.563C143.01 406.584 137.449 410.749 131 412C133.174 424.937 135.81 436.169 145 446C145 446.66 145 447.32 145 448C145.864 448.406 145.864 448.406 146.746 448.82C149.02 450.01 150.983 451.375 153.063 452.875C163.713 460.063 175.529 462.139 188.125 460.438C196.977 458.702 205.52 454.238 212.438 448.5C215.357 446.151 215.789 446.004 219.813 445.938C224.364 447.455 224.364 447.455 226 450C227.245 453.291 227.151 454.629 225.816 457.918C220.739 466.533 209.766 470.961 201 475C207.596 485.323 218.008 492.345 230 495C244.477 495.875 256.432 494.605 268 485C271.991 481.044 275.675 477.164 278 472C276.645 471.853 276.645 471.853 275.262 471.703C274.082 471.554 272.903 471.404 271.688 471.25C270.516 471.111 269.344 470.972 268.137 470.828C265 470 265 470 263.109 468.106C261.556 465.157 261.53 463.29 262 460C263.32 458.35 264.64 456.7 266 455C271.94 455 277.88 455 284 455C284 437.18 284 419.36 284 401C279.524 401.103 275.049 401.206 270.438 401.313C268.34 401.35 268.34 401.35 266.201 401.388C257.327 401.65 250.536 402.465 244 409C241.194 413.199 239.841 417.292 239 422.25C238.448 425.289 238.024 426.961 236.375 429.625C232.702 431.752 230.219 431.469 226 431C224.063 429.938 224.063 429.938 223 428C220.678 419.249 223.424 411.041 227.602 403.313C233.556 393.467 242.001 388.143 253 385C263.23 385 273.46 385 284 385C284 351.34 284 317.68 284 283C275.179 283.035 266.358 283.07 257.27 283.106C250.977 283.123 244.685 283.138 238.392 283.151C230.238 283.167 222.083 283.189 213.929 283.226C207.473 283.256 201.017 283.276 194.562 283.282C191.144 283.286 187.726 283.295 184.308 283.317C180.491 283.339 176.675 283.342 172.859 283.341C171.16 283.357 171.16 283.357 169.428 283.373C168.386 283.369 167.344 283.365 166.271 283.361C165.368 283.364 164.466 283.366 163.536 283.369C160.428 282.917 158.538 281.821 156 280C154.454 276.908 154.706 274.406 155 271C157.001 268.404 158.197 267.162 161.444 266.508C162.363 266.512 163.281 266.515 164.227 266.519C165.282 266.514 166.337 266.508 167.424 266.502C168.58 266.517 169.737 266.531 170.929 266.546C172.788 266.545 172.788 266.545 174.685 266.544C178.035 266.547 181.385 266.567 184.735 266.595C187.879 266.618 191.024 266.619 194.169 266.622C203.362 266.643 212.556 266.698 221.75 266.75C252.564 266.874 252.564 266.874 284 267C284 225.42 284 183.84 284 141C261.787 141.158 261.787 141.158 239.575 141.36C235.245 141.378 235.245 141.378 233.207 141.382C231.807 141.388 230.407 141.402 229.006 141.422C214.099 141.63 204.267 138.57 193.285 128.414C186.532 121.369 183.64 112.017 182.848 102.473C183.025 99.596 183.705 97.568 185 95.0001C187.927 93.2115 189.695 92.9879 193.125 93.1251C196.585 94.1781 197.164 94.9484 199 98.0001C199.809 101.024 199.809 101.024 200.438 104.375C202.095 112.043 204.32 116.495 211 121C217.923 125.021 225.347 124.478 233.121 124.512C234.591 124.529 236.061 124.547 237.53 124.566C241.379 124.614 245.227 124.643 249.076 124.67C253.704 124.705 258.332 124.762 262.96 124.815C269.974 124.893 276.986 124.944 284 125C284 108.83 284 92.6601 284 76.0001C278.06 76.0001 272.12 76.0001 266 76.0001C262 72.0001 262 72.0001 261.5 68.5001C262 65.0001 262 65.0001 263.453 62.797C267.267 60.1064 270.707 60.5655 275.25 60.7501C276.091 60.7681 276.931 60.7862 277.797 60.8048C279.865 60.8518 281.933 60.9235 284 61.0001C281.929 48.0223 278.025 34.2519 267 26.0001C263.776 23.747 260.498 21.7979 257 20.0001C256.337 19.6572 255.675 19.3143 254.992 18.961C245.923 15.1557 233.143 15.5218 223.938 18.6251C214.744 22.6378 206.6 28.6 201 37.0001C201.944 37.45 202.887 37.8998 203.859 38.3634C222.308 47.4804 234.36 60.9434 241.852 80.1876C242.416 82.1403 242.746 83.9817 243 86.0001C243.143 87.128 243.286 88.2559 243.434 89.418C244.536 100.384 244.536 100.384 241 105C237.908 106.546 235.406 106.294 232 106C228.723 103.678 228.045 102.187 227.094 98.2423C226.884 96.7882 226.687 95.3323 226.5 93.8751C224.339 79.8908 219.196 69.7745 208.172 60.5665C198.589 53.6554 186.939 50.1244 175.129 51.2813C162.387 53.4021 150.269 58.7455 142 69.0001C134.085 80.2379 131.557 91.2961 132.125 105C131.979 108.512 131.119 110.229 129 113C125.545 114.728 120.931 114.526 117.207 113.512C106.022 110.919 93.2958 112.946 83.3712 118.461C81.1683 119.891 79.0821 121.401 77.0001 123C76.1338 123.578 75.2676 124.155 74.3751 124.75C66.0911 132.598 60.1958 143.397 59.6602 154.879C59.5472 161.298 59.4582 167.731 61.0001 174C62.0017 173.723 63.0033 173.446 64.0352 173.16C65.3776 172.794 66.7201 172.428 68.0626 172.063C68.7193 171.88 69.3761 171.698 70.0528 171.51C78.3606 169.259 89.204 166.41 97.1251 170.688C99.2477 173.305 99.9181 174.639 100 178C98.9361 181.813 98.3749 182.75 95.0001 185C92.9539 185.423 92.9539 185.423 90.6055 185.676C89.7391 185.779 88.8727 185.881 87.98 185.987C87.0585 186.095 86.137 186.202 85.1876 186.313C65.8236 188.856 49.5173 196.398 36.7735 211.668C25.0379 227.25 19.6318 244.492 21.4024 264.07C24.4302 283.978 33.7152 300.756 50.0001 313C51.6384 314.046 53.2937 315.069 55.0001 316C55.2372 315.441 55.4744 314.881 55.7188 314.305C60.1583 306.319 68.7207 299.653 77.0001 296C80.5456 295.409 82.0701 295.598 85.3126 297C87.5075 299.601 87.9734 301.653 88.2188 305.016C88.0001 307 88.0001 307 86.0626 309.625C84.4463 310.878 82.8246 312.126 81.1641 313.32C70.2382 321.223 63.1507 330.776 60.0001 344C58.4057 358.796 61.0574 370.966 70.0001 383C72.4568 386.685 72.6889 389.72 72.0001 394C69.9822 397.104 68.7872 397.825 65.1876 398.625C59.1685 397.445 56.25 393.815 52.918 388.977C43.7343 374.27 39.9419 356.924 43.4717 339.698C43.9687 337.796 44.4833 335.898 45.0001 334C45.0001 332.68 45.0001 331.36 45.0001 330C42.6418 327.829 42.6418 327.829 39.5626 325.813C21.1307 312.678 9.51155 293.435 5.28131 271.227C1.41718 247.047 6.91864 224.272 20.8126 204.188C27.5956 195.356 35.3511 187.647 45.0001 182C44.8557 181.461 44.7113 180.922 44.5626 180.367C40.1063 160.624 42.2786 141.003 52.8511 123.76C60.9719 111.319 73.8846 102.413 88.0001 98.0001C88.6536 97.7771 89.3072 97.5541 89.9805 97.3243C98.0114 95.0408 106.735 95.8396 115 96.0001C115.13 94.7104 115.13 94.7104 115.262 93.3946C117.439 75.0785 124.9 60.1128 139 48.0001C151.66 38.35 165.341 34.6809 181 34.0001C181.99 34.3301 182.98 34.6601 184 35.0001C184.186 34.1957 184.371 33.3913 184.563 32.5626C189.889 19.3612 202.816 9.07283 215.488 3.4532C234.846 -3.96717 256.815 -1.48218 274 10.0001ZM332 64.0001C330.654 67.7229 330.812 69.4347 332.063 73.1876C334.436 76.6329 336.003 77.7702 340 79.0001C344.142 78.4288 346.323 77.6076 349.438 74.8126C351.46 71.173 351.66 69.1067 351 65.0001C348.047 61.4249 345.88 59.2564 341.25 58.6251C336.795 59.1392 335.031 60.7576 332 64.0001ZM405 77.0001C402.955 80.8348 402.859 82.4462 403.938 86.6876C406.52 90.8345 408.297 91.8045 413 93.0001C416.454 92.3906 418.499 91.3432 421.375 89.3751C423.302 86.5582 423.563 84.3609 423.398 80.9688C422.775 77.8902 421.213 76.1479 419 74.0001C413.594 71.2969 408.915 72.7499 405 77.0001ZM334 232C332.214 236.019 331.698 238.02 333 242.25C335.411 245.565 337.12 246.707 341 248C344.962 248 346.648 247.253 349.875 244.938C352.269 241.628 352.741 239.924 352.5 235.934C351.652 232.653 349.588 231.034 347 229C341.801 226.401 337.761 227.925 334 232ZM393 302C391.45 305.101 391.71 307.579 392 311C393.796 313.753 395.053 315.526 398 317C403.898 317.631 403.898 317.631 408.938 314.875C411.253 311.648 412 309.962 412 306C410.471 302.025 409.572 300.382 406 298C400.128 297.432 397.291 297.58 393 302ZM380 368C378.752 371.405 378.752 371.405 379 375C381.23 379.258 381.23 379.258 385 382C390.876 382.618 390.876 382.618 395.938 379.938C398.406 376.422 399 374.286 399 370C397.412 366.426 396.284 365.189 393 363C386.762 362.296 383.829 362.547 380 368ZM372.625 462.688C371.656 466.274 371.874 469.462 373 473C375.357 475.554 377.218 476.699 380.438 477.938C384.051 478.026 385.992 476.962 389 475C391.584 471.999 391.992 470.479 392.063 466.5C390.687 461.968 388.991 460.485 385 458C379.765 457.145 375.998 458.548 372.625 462.688Z" fill="white"/>
<path d="M440 221C443.217 223.783 445.926 227.049 448.662 230.297C450.37 232.168 451.831 233.686 454 235C456.936 234.983 459.293 234.063 462 233C469.728 231.917 476.724 233.923 483.047 238.473C488.461 243.366 491.295 249.326 492.379 256.512C492.771 264.578 490.301 271.859 484.875 277.875C478.855 283.304 471.587 285.755 463.52 285.387C456.372 284.29 450.653 281.611 446 276C445.278 275.196 444.556 274.391 443.812 273.562C439.299 267.181 439.591 260.546 440 253C440.311 251.871 440.621 250.741 440.941 249.578C441.008 245.53 440.694 245.141 438.07 242.324C436.775 241.091 435.459 239.879 434.125 238.687C432.814 237.464 431.504 236.239 430.195 235.012C429.314 234.214 429.314 234.214 428.415 233.401C426.309 231.315 426.011 230.103 425.688 227.125C426 224 426 224 427.812 221.687C431.997 218.46 435.429 218.733 440 221ZM459 252C456.682 254.318 456.065 255.628 455.5 258.875C456.196 263.222 457.774 265.048 461 268C464.904 269.185 466.963 269.424 470.75 267.875C473.367 265.694 474.705 264.165 476 261C475.932 257.135 475.566 254.827 473.375 251.625C468.289 248.145 463.766 248.16 459 252Z" fill="white"/>
<path d="M123.762 135.402C136.338 141.761 144.493 150.817 149.09 164.164C150.152 168.64 150.344 172.731 150.313 177.313C150.304 178.575 150.304 178.575 150.295 179.863C150.089 190.417 147.342 197.577 141 206C140.258 207.031 139.515 208.063 138.75 209.125C129.296 219.008 118.35 223.046 104.945 224.215C101.501 223.964 99.7462 223.052 97 221C95.5557 218.111 95.6231 216.204 96 213C99.6745 208.371 102.414 207.355 108.188 206.625C116.588 205.257 122.759 202.377 127.906 195.426C132.958 187.264 133.755 180.565 133 171C131.624 165.7 129.868 161.846 126 158C126 157.34 126 156.68 126 156C125.433 155.722 124.866 155.443 124.281 155.156C122.785 154.398 121.304 153.607 119.844 152.781C115.073 150.174 111.041 148.689 105.625 148C100.323 147.264 100.323 147.264 97.25 144.75C95.7565 141.464 95.393 139.566 96 136C102.546 127.649 115.349 131.434 123.762 135.402Z" fill="white"/>
<path d="M130.065 321.855C130.733 321.851 131.4 321.848 132.088 321.844C134.271 321.835 136.454 321.833 138.637 321.832C140.164 321.829 141.692 321.825 143.219 321.822C146.409 321.816 149.599 321.814 152.788 321.815C156.874 321.815 160.959 321.801 165.045 321.784C168.194 321.773 171.343 321.771 174.493 321.771C175.999 321.77 177.506 321.766 179.013 321.758C181.116 321.748 183.219 321.751 185.323 321.757C186.519 321.756 187.715 321.754 188.947 321.753C191.928 321.994 193.556 322.322 196 324C198.342 327.512 198.496 328.865 198 333C196.404 335.657 196.404 335.657 194 338C190.877 338.619 190.877 338.619 187.155 338.612C186.475 338.617 185.795 338.623 185.094 338.629C182.849 338.642 180.605 338.621 178.359 338.601C176.792 338.607 175.225 338.615 173.659 338.626C169.532 338.649 165.406 338.644 161.279 338.632C154.688 338.614 148.098 338.624 141.508 338.658C139.215 338.664 136.922 338.651 134.629 338.636C127.475 338.631 121.492 338.794 115 342C114.092 342.433 113.185 342.866 112.25 343.312C106.986 347.26 104.749 352.966 103.578 359.273C102.418 365.453 102.418 365.453 100.375 368.125C96.7579 369.458 93.6364 369.251 90 368C87.5237 365.369 87.0799 363.548 86.5625 360C87.0063 350.384 90.9161 341.538 97.25 334.5C107.439 325.237 116.155 321.899 130.065 321.855Z" fill="white"/>
<path d="M463.152 404.645C469.083 408.995 473.535 414.728 475 422C476.093 430.164 474.511 436.141 470 443C465.941 447.914 461.046 450.985 455 453C447.21 453.714 440.699 453.246 434 449C431.187 446.563 431.187 446.563 429 444C428.278 443.196 427.556 442.391 426.812 441.563C422.548 435.534 422.23 429.171 423 422C424.742 414.823 428.086 409.451 434 405C442.875 399.872 454.181 399.542 463.152 404.645ZM442 420C439.416 423.001 439.009 424.521 438.937 428.5C440.313 433.033 442.009 434.515 446 437C450.218 437.879 451.636 437.227 455.312 434.938C458.51 431.442 459.084 429.703 459 425C457.577 421.318 456.351 420.208 452.937 418.188C448.245 416.29 446.306 417.452 442 420Z" fill="white"/>
<path d="M497 327C503.944 333.235 507.228 339.108 507.957 348.383C508.089 356.447 505.531 362.177 500 368C494.489 373.085 488.902 374.645 481.562 375.313C474.217 374.668 467.352 372.206 462 367C455.992 359.046 455.08 351.888 456 342C458.299 334.256 462.846 328.878 469.84 324.973C478.644 321.066 488.869 321.947 497 327ZM474 342C471.544 345.685 471.191 348.722 472 353C474.398 356.315 476.071 357.684 479.937 359C483.845 359 485.785 358.215 489 356C491.594 352.434 492.093 350.773 491.562 346.375C489.664 342.274 488.03 340.976 484 339C479.782 338.28 477.404 339.516 474 342Z" fill="white"/>
<path d="M471 135C477.271 139.453 480.969 143.997 482.312 151.75C483.583 160.622 481.932 166.716 476.703 173.988C471.896 179.667 466.295 182.464 458.84 183.219C450.698 183.554 444.151 180.937 437.832 175.84C432.447 170.432 430.686 164.519 430.375 157C430.71 148.68 433.198 142.298 439.312 136.562C448.909 129.278 460.701 128.684 471 135ZM449 150C446.544 153.684 446.191 156.722 447 161C449.398 164.315 451.071 165.683 454.938 167C458.747 167 460.805 166.033 464 164C466.459 160.311 466.801 157.281 466 153C463.443 149.358 461.777 148.222 457.5 147C453.574 147 452.034 147.573 449 150Z" fill="white"/>
<path d="M168 356C178.013 358.595 186.494 364.253 191.918 373.145C197.069 383.264 198.63 392.997 196.352 404.184C192.767 414.984 185.804 422.426 176 428C169.664 431.086 162.99 432.026 156 431C153.005 429.075 152.32 427.831 151.062 424.562C150.979 421.153 151.913 419.662 154 417C157.149 415.084 160.289 414.431 163.875 413.687C170.114 412.154 173.402 410.586 177.242 405.285C180.509 399.776 180.896 394.272 180 388C178.206 382.055 175.036 378.494 170 375C166.003 372.89 161.729 372.353 157.305 371.66C154.693 370.912 153.666 370.115 152 368C150.968 364.985 150.889 363.396 151.75 360.312C155.099 354.117 161.911 355.327 168 356Z" fill="white"/>
<path d="M248.676 181.086C257.481 184.549 264.445 192.251 268.25 200.812C270.802 211.658 270.336 221.201 264.477 230.898C258.255 239.754 250.48 243.972 240 246C236.082 246.301 233.257 246.326 230 244C227.918 241.324 228.004 239.882 228.125 236.437C229 233 229 233 230.5 231.187C232.881 230.056 234.807 229.573 237.375 229.062C243.072 227.912 246.591 225.713 250.312 221.187C252.511 217.035 253.571 213.649 252.559 208.953C250.754 203.466 247.977 199.571 242.75 196.812C240.112 195.976 240.112 195.976 237.789 195.617C231.48 194.494 231.48 194.494 228.875 191.812C227.72 188.099 227.962 185.735 229 182C233.73 176.134 242.563 179.083 248.676 181.086Z" fill="white"/>
<path d="M205 179C208.122 185.244 206.208 194.283 204.375 200.688C199.355 215.307 189.833 226.337 176.312 233.688C168.265 237.532 158.936 239.958 150 239C145.431 236.861 145.431 236.861 144 234C143.425 227.796 143.425 227.796 145.543 224.863C148.732 222.445 151.766 222.068 155.625 221.563C166.025 219.903 175.425 216.229 181.848 207.484C185.874 201.432 188.367 196.25 189.445 189.012C189.608 187.935 189.77 186.859 189.937 185.75C190.07 184.734 190.203 183.718 190.34 182.672C191.05 179.798 191.695 178.786 194 177C198.071 174.965 201.214 177.071 205 179Z" fill="white"/>
<path d="M71.0001 236C73.6087 238.608 73.631 240.52 74.3126 244.125C76.151 252.412 78.9241 257.993 85.8634 262.992C94.5372 267.083 104.075 266.351 113.442 266.391C115.195 266.425 115.195 266.425 116.984 266.461C118.573 266.473 118.573 266.473 120.194 266.486C123.661 267.121 124.821 268.29 127 271C128.18 273.613 128.059 274.76 127.375 277.562C125.65 280.621 124.129 281.448 121 283C118.312 283.372 118.312 283.372 115.43 283.363C114.368 283.363 113.305 283.362 112.211 283.361C111.11 283.345 110.009 283.329 108.875 283.312C107.797 283.316 106.72 283.319 105.609 283.322C90.9636 283.225 78.9812 280.534 68.0431 270.312C64.5077 266.311 62.2096 261.831 60.0001 257C59.5463 256.031 59.0926 255.061 58.6251 254.062C57.6152 249.114 57.1786 243.998 58.0001 239C62.1033 233.849 65.0525 233.596 71.0001 236Z" fill="white"/>
<path d="M189 64.3749C191.607 66.493 191.93 67.4783 192.375 70.8124C192 73.9999 192 73.9999 190.188 76.7499C186.316 79.4826 183.272 79.8139 178.66 80.4843C174.061 81.3758 171.183 83.51 168.313 87.1249C166.729 90.5937 165.774 94.0999 164.844 97.7929C164 99.9999 164 99.9999 161 102C157.077 102.428 154.892 102.634 151.625 100.312C148.861 96.3784 148.823 94.0471 149.625 89.3124C152.201 80.3321 156.143 73.2754 164 67.9999C171.618 63.8902 180.653 60.5493 189 64.3749Z" fill="white"/>
<path d="M225.676 321.797C226.438 321.791 227.2 321.786 227.985 321.78C229.6 321.77 231.215 321.764 232.83 321.76C235.293 321.75 237.754 321.719 240.217 321.688C241.786 321.681 243.356 321.676 244.926 321.672C245.659 321.66 246.393 321.647 247.149 321.635C251.61 321.654 254.458 322.238 258 325C259.546 328.092 259.294 330.594 259 334C257.513 336.191 257.513 336.191 255 338C252.031 338.41 249.441 338.585 246.473 338.566C245.647 338.573 244.821 338.579 243.97 338.585C242.226 338.592 240.482 338.589 238.738 338.576C236.074 338.563 233.415 338.597 230.752 338.635C229.055 338.636 227.357 338.634 225.66 338.629C224.471 338.649 224.471 338.649 223.258 338.669C219.036 338.598 217.439 338.343 213.994 335.652C212 333 212 333 211.438 329.938C212.118 326.383 213.201 325.223 216 323C219.072 321.464 222.304 321.816 225.676 321.797Z" fill="white"/>
</g>
<defs>
<clipPath id="clip0_16_20">
<rect width="512" height="512" fill="white"/>
</clipPath>
</defs>
</svg>
